<mxfile host="app.diagrams.net" modified="2022-07-27T05:37:25.636Z" agent="5.0 (Macintosh; Intel Mac OS X 10_15_7) AppleWebKit/537.36 (KHTML, like Gecko) Chrome/103.0.0.0 Safari/537.36" etag="9bDVRZC8G2lyqqQYZz3j" version="20.0.4" type="github">
  <diagram id="C3_-qIOGO6itK0wJnFLm" name="Page-1">
    <mxGraphModel dx="2148" dy="734" grid="1" gridSize="10" guides="1" tooltips="1" connect="1" arrows="1" fold="1" page="1" pageScale="1" pageWidth="850" pageHeight="1100" math="0" shadow="0">
      <root>
        <mxCell id="0" />
        <mxCell id="1" parent="0" />
        <mxCell id="X8FqZXfshNN9mOqV7TIp-28" value="" style="rounded=1;whiteSpace=wrap;html=1;fillColor=#f8cecc;strokeColor=#b85450;" parent="1" vertex="1">
          <mxGeometry x="-800" y="622.5" width="520" height="487.5" as="geometry" />
        </mxCell>
        <mxCell id="X8FqZXfshNN9mOqV7TIp-27" value="" style="rounded=1;whiteSpace=wrap;html=1;fillColor=#dae8fc;strokeColor=#6c8ebf;" parent="1" vertex="1">
          <mxGeometry x="-800" y="245" width="520" height="355" as="geometry" />
        </mxCell>
        <mxCell id="cpXEYUqBAn3vx9UaLKOo-4" style="edgeStyle=orthogonalEdgeStyle;rounded=0;orthogonalLoop=1;jettySize=auto;html=1;exitX=0.5;exitY=0;exitDx=0;exitDy=0;entryX=0.5;entryY=0;entryDx=0;entryDy=0;fontSize=16;" parent="1" source="cpXEYUqBAn3vx9UaLKOo-1" target="cpXEYUqBAn3vx9UaLKOo-2" edge="1">
          <mxGeometry relative="1" as="geometry">
            <Array as="points">
              <mxPoint x="160" y="230" />
              <mxPoint x="460" y="230" />
            </Array>
          </mxGeometry>
        </mxCell>
        <mxCell id="cpXEYUqBAn3vx9UaLKOo-1" value="智能体" style="rounded=1;whiteSpace=wrap;html=1;fontSize=16;fillColor=#d5e8d4;strokeColor=#82b366;" parent="1" vertex="1">
          <mxGeometry x="100" y="260" width="120" height="60" as="geometry" />
        </mxCell>
        <mxCell id="cpXEYUqBAn3vx9UaLKOo-3" style="edgeStyle=orthogonalEdgeStyle;rounded=0;orthogonalLoop=1;jettySize=auto;html=1;exitX=0;exitY=0.5;exitDx=0;exitDy=0;entryX=1;entryY=0.5;entryDx=0;entryDy=0;fontSize=16;" parent="1" source="cpXEYUqBAn3vx9UaLKOo-2" target="cpXEYUqBAn3vx9UaLKOo-1" edge="1">
          <mxGeometry relative="1" as="geometry" />
        </mxCell>
        <mxCell id="cpXEYUqBAn3vx9UaLKOo-5" style="edgeStyle=orthogonalEdgeStyle;rounded=0;orthogonalLoop=1;jettySize=auto;html=1;exitX=0.5;exitY=1;exitDx=0;exitDy=0;entryX=0.5;entryY=1;entryDx=0;entryDy=0;fontSize=16;" parent="1" source="cpXEYUqBAn3vx9UaLKOo-2" target="cpXEYUqBAn3vx9UaLKOo-1" edge="1">
          <mxGeometry relative="1" as="geometry">
            <Array as="points">
              <mxPoint x="460" y="350" />
              <mxPoint x="160" y="350" />
            </Array>
          </mxGeometry>
        </mxCell>
        <mxCell id="cpXEYUqBAn3vx9UaLKOo-2" value="环境" style="rounded=1;whiteSpace=wrap;html=1;fontSize=16;fillColor=#d5e8d4;strokeColor=#82b366;" parent="1" vertex="1">
          <mxGeometry x="400" y="260" width="120" height="60" as="geometry" />
        </mxCell>
        <mxCell id="cpXEYUqBAn3vx9UaLKOo-6" value="动作" style="text;html=1;strokeColor=none;fillColor=none;align=center;verticalAlign=middle;whiteSpace=wrap;rounded=0;fontSize=16;" parent="1" vertex="1">
          <mxGeometry x="290" y="200" width="60" height="30" as="geometry" />
        </mxCell>
        <mxCell id="cpXEYUqBAn3vx9UaLKOo-7" value="奖励" style="text;html=1;strokeColor=none;fillColor=none;align=center;verticalAlign=middle;whiteSpace=wrap;rounded=0;fontSize=16;" parent="1" vertex="1">
          <mxGeometry x="290" y="260" width="60" height="30" as="geometry" />
        </mxCell>
        <mxCell id="cpXEYUqBAn3vx9UaLKOo-8" value="状态" style="text;html=1;strokeColor=none;fillColor=none;align=center;verticalAlign=middle;whiteSpace=wrap;rounded=0;fontSize=16;" parent="1" vertex="1">
          <mxGeometry x="290" y="320" width="60" height="30" as="geometry" />
        </mxCell>
        <mxCell id="vccKlyyBHVM1U_u9wuNe-10" style="edgeStyle=orthogonalEdgeStyle;rounded=0;orthogonalLoop=1;jettySize=auto;html=1;exitX=1;exitY=0.5;exitDx=0;exitDy=0;fontSize=16;fillColor=#dae8fc;strokeColor=#6c8ebf;" parent="1" source="vccKlyyBHVM1U_u9wuNe-1" target="vccKlyyBHVM1U_u9wuNe-2" edge="1">
          <mxGeometry relative="1" as="geometry" />
        </mxCell>
        <mxCell id="vccKlyyBHVM1U_u9wuNe-1" value="基本概念" style="rounded=0;whiteSpace=wrap;html=1;fontSize=16;fillColor=#dae8fc;strokeColor=#6c8ebf;" parent="1" vertex="1">
          <mxGeometry x="170" y="530" width="150" height="60" as="geometry" />
        </mxCell>
        <mxCell id="vccKlyyBHVM1U_u9wuNe-11" style="edgeStyle=orthogonalEdgeStyle;rounded=0;orthogonalLoop=1;jettySize=auto;html=1;exitX=1;exitY=0.5;exitDx=0;exitDy=0;entryX=0;entryY=0.5;entryDx=0;entryDy=0;fontSize=16;fillColor=#dae8fc;strokeColor=#6c8ebf;" parent="1" source="vccKlyyBHVM1U_u9wuNe-2" target="vccKlyyBHVM1U_u9wuNe-3" edge="1">
          <mxGeometry relative="1" as="geometry" />
        </mxCell>
        <mxCell id="vccKlyyBHVM1U_u9wuNe-2" value="马尔科夫决策过程" style="rounded=0;whiteSpace=wrap;html=1;fontSize=16;fillColor=#dae8fc;strokeColor=#6c8ebf;" parent="1" vertex="1">
          <mxGeometry x="410" y="530" width="150" height="60" as="geometry" />
        </mxCell>
        <mxCell id="vccKlyyBHVM1U_u9wuNe-12" style="edgeStyle=orthogonalEdgeStyle;rounded=0;orthogonalLoop=1;jettySize=auto;html=1;exitX=0.5;exitY=1;exitDx=0;exitDy=0;entryX=0.5;entryY=0;entryDx=0;entryDy=0;fontSize=16;" parent="1" source="vccKlyyBHVM1U_u9wuNe-3" target="vccKlyyBHVM1U_u9wuNe-4" edge="1">
          <mxGeometry relative="1" as="geometry" />
        </mxCell>
        <mxCell id="vccKlyyBHVM1U_u9wuNe-3" value="动态规划" style="rounded=0;whiteSpace=wrap;html=1;fontSize=16;fillColor=#dae8fc;strokeColor=#6c8ebf;" parent="1" vertex="1">
          <mxGeometry x="650" y="530" width="150" height="60" as="geometry" />
        </mxCell>
        <mxCell id="vccKlyyBHVM1U_u9wuNe-13" style="edgeStyle=orthogonalEdgeStyle;rounded=0;orthogonalLoop=1;jettySize=auto;html=1;exitX=0;exitY=0.5;exitDx=0;exitDy=0;entryX=1;entryY=0.5;entryDx=0;entryDy=0;fontSize=16;fillColor=#ffe6cc;strokeColor=#d79b00;" parent="1" source="vccKlyyBHVM1U_u9wuNe-4" target="vccKlyyBHVM1U_u9wuNe-5" edge="1">
          <mxGeometry relative="1" as="geometry" />
        </mxCell>
        <mxCell id="vccKlyyBHVM1U_u9wuNe-4" value="无模型方法一：&lt;br&gt;蒙特卡洛" style="rounded=0;whiteSpace=wrap;html=1;fontSize=16;fillColor=#ffe6cc;strokeColor=#d79b00;" parent="1" vertex="1">
          <mxGeometry x="650" y="650" width="150" height="60" as="geometry" />
        </mxCell>
        <mxCell id="vccKlyyBHVM1U_u9wuNe-14" style="edgeStyle=orthogonalEdgeStyle;rounded=0;orthogonalLoop=1;jettySize=auto;html=1;exitX=0;exitY=0.5;exitDx=0;exitDy=0;fontSize=16;fillColor=#ffe6cc;strokeColor=#d79b00;" parent="1" source="vccKlyyBHVM1U_u9wuNe-5" target="vccKlyyBHVM1U_u9wuNe-6" edge="1">
          <mxGeometry relative="1" as="geometry" />
        </mxCell>
        <mxCell id="vccKlyyBHVM1U_u9wuNe-5" value="无模型方法二：&lt;br&gt;时序差分" style="rounded=0;whiteSpace=wrap;html=1;fontSize=16;fillColor=#ffe6cc;strokeColor=#d79b00;" parent="1" vertex="1">
          <mxGeometry x="410" y="650" width="150" height="60" as="geometry" />
        </mxCell>
        <mxCell id="vccKlyyBHVM1U_u9wuNe-15" style="edgeStyle=orthogonalEdgeStyle;rounded=0;orthogonalLoop=1;jettySize=auto;html=1;exitX=0.5;exitY=1;exitDx=0;exitDy=0;entryX=0.5;entryY=0;entryDx=0;entryDy=0;fontSize=16;" parent="1" source="vccKlyyBHVM1U_u9wuNe-6" target="vccKlyyBHVM1U_u9wuNe-7" edge="1">
          <mxGeometry relative="1" as="geometry" />
        </mxCell>
        <mxCell id="vccKlyyBHVM1U_u9wuNe-6" value="无模型方法三：&lt;br&gt;多步自举" style="rounded=0;whiteSpace=wrap;html=1;fontSize=16;fillColor=#ffe6cc;strokeColor=#d79b00;" parent="1" vertex="1">
          <mxGeometry x="170" y="650" width="150" height="60" as="geometry" />
        </mxCell>
        <mxCell id="vccKlyyBHVM1U_u9wuNe-16" style="edgeStyle=orthogonalEdgeStyle;rounded=0;orthogonalLoop=1;jettySize=auto;html=1;exitX=1;exitY=0.5;exitDx=0;exitDy=0;entryX=0;entryY=0.5;entryDx=0;entryDy=0;fontSize=16;fillColor=#f8cecc;strokeColor=#b85450;" parent="1" source="vccKlyyBHVM1U_u9wuNe-7" target="vccKlyyBHVM1U_u9wuNe-8" edge="1">
          <mxGeometry relative="1" as="geometry" />
        </mxCell>
        <mxCell id="vccKlyyBHVM1U_u9wuNe-7" value="函数近似和深度网络" style="rounded=0;whiteSpace=wrap;html=1;fontSize=16;fillColor=#f8cecc;strokeColor=#b85450;" parent="1" vertex="1">
          <mxGeometry x="170" y="770" width="150" height="60" as="geometry" />
        </mxCell>
        <mxCell id="vccKlyyBHVM1U_u9wuNe-17" style="edgeStyle=orthogonalEdgeStyle;rounded=0;orthogonalLoop=1;jettySize=auto;html=1;exitX=1;exitY=0.5;exitDx=0;exitDy=0;entryX=0;entryY=0.5;entryDx=0;entryDy=0;fontSize=16;fillColor=#f8cecc;strokeColor=#b85450;" parent="1" source="vccKlyyBHVM1U_u9wuNe-8" target="vccKlyyBHVM1U_u9wuNe-9" edge="1">
          <mxGeometry relative="1" as="geometry" />
        </mxCell>
        <mxCell id="vccKlyyBHVM1U_u9wuNe-8" value="策略梯度算法" style="rounded=0;whiteSpace=wrap;html=1;fontSize=16;fillColor=#f8cecc;strokeColor=#b85450;" parent="1" vertex="1">
          <mxGeometry x="410" y="770" width="150" height="60" as="geometry" />
        </mxCell>
        <mxCell id="vccKlyyBHVM1U_u9wuNe-9" value="深度强化学习" style="rounded=0;whiteSpace=wrap;html=1;fontSize=16;fillColor=#f8cecc;strokeColor=#b85450;" parent="1" vertex="1">
          <mxGeometry x="650" y="770" width="150" height="60" as="geometry" />
        </mxCell>
        <mxCell id="vccKlyyBHVM1U_u9wuNe-22" style="edgeStyle=orthogonalEdgeStyle;rounded=0;orthogonalLoop=1;jettySize=auto;html=1;exitX=0.5;exitY=1;exitDx=0;exitDy=0;entryX=0.5;entryY=0;entryDx=0;entryDy=0;fontSize=16;" parent="1" source="vccKlyyBHVM1U_u9wuNe-19" target="vccKlyyBHVM1U_u9wuNe-20" edge="1">
          <mxGeometry relative="1" as="geometry" />
        </mxCell>
        <mxCell id="vccKlyyBHVM1U_u9wuNe-19" value="基础理论" style="rounded=1;whiteSpace=wrap;html=1;fontSize=16;fillColor=#dae8fc;strokeColor=#6c8ebf;" parent="1" vertex="1">
          <mxGeometry x="-20" y="530" width="120" height="60" as="geometry" />
        </mxCell>
        <mxCell id="vccKlyyBHVM1U_u9wuNe-23" style="edgeStyle=orthogonalEdgeStyle;rounded=0;orthogonalLoop=1;jettySize=auto;html=1;exitX=0.5;exitY=1;exitDx=0;exitDy=0;entryX=0.5;entryY=0;entryDx=0;entryDy=0;fontSize=16;" parent="1" source="vccKlyyBHVM1U_u9wuNe-20" target="vccKlyyBHVM1U_u9wuNe-21" edge="1">
          <mxGeometry relative="1" as="geometry" />
        </mxCell>
        <mxCell id="vccKlyyBHVM1U_u9wuNe-20" value="基于表格方法" style="rounded=1;whiteSpace=wrap;html=1;fontSize=16;fillColor=#ffe6cc;strokeColor=#d79b00;" parent="1" vertex="1">
          <mxGeometry x="-20" y="650" width="120" height="60" as="geometry" />
        </mxCell>
        <mxCell id="vccKlyyBHVM1U_u9wuNe-21" value="函数近似方法" style="rounded=1;whiteSpace=wrap;html=1;fontSize=16;fillColor=#f8cecc;strokeColor=#b85450;" parent="1" vertex="1">
          <mxGeometry x="-20" y="770" width="120" height="60" as="geometry" />
        </mxCell>
        <mxCell id="vccKlyyBHVM1U_u9wuNe-24" value="" style="endArrow=none;html=1;rounded=0;fontSize=16;dashed=1;" parent="1" edge="1">
          <mxGeometry width="50" height="50" relative="1" as="geometry">
            <mxPoint x="130" y="845" as="sourcePoint" />
            <mxPoint x="130" y="515" as="targetPoint" />
          </mxGeometry>
        </mxCell>
        <mxCell id="35QrHY4F2-vO3FHa5NAE-1" value="" style="shape=curlyBracket;whiteSpace=wrap;html=1;rounded=1;" parent="1" vertex="1">
          <mxGeometry x="180" y="960" width="20" height="120" as="geometry" />
        </mxCell>
        <mxCell id="35QrHY4F2-vO3FHa5NAE-2" value="策略迭代" style="rounded=1;whiteSpace=wrap;html=1;fontSize=16;fillColor=#d5e8d4;strokeColor=#82b366;" parent="1" vertex="1">
          <mxGeometry x="79" y="990" width="100" height="60" as="geometry" />
        </mxCell>
        <mxCell id="35QrHY4F2-vO3FHa5NAE-3" value="策略评估" style="rounded=1;whiteSpace=wrap;html=1;fontSize=16;fillColor=#e1d5e7;strokeColor=#9673a6;" parent="1" vertex="1">
          <mxGeometry x="210" y="960" width="100" height="50" as="geometry" />
        </mxCell>
        <mxCell id="35QrHY4F2-vO3FHa5NAE-4" value="策略提升" style="rounded=1;whiteSpace=wrap;html=1;fontSize=16;fillColor=#e1d5e7;strokeColor=#9673a6;" parent="1" vertex="1">
          <mxGeometry x="210" y="1030" width="100" height="50" as="geometry" />
        </mxCell>
        <mxCell id="X8FqZXfshNN9mOqV7TIp-15" style="edgeStyle=orthogonalEdgeStyle;rounded=0;orthogonalLoop=1;jettySize=auto;html=1;exitX=0.5;exitY=1;exitDx=0;exitDy=0;entryX=0.5;entryY=0;entryDx=0;entryDy=0;" parent="1" source="X8FqZXfshNN9mOqV7TIp-1" target="X8FqZXfshNN9mOqV7TIp-2" edge="1">
          <mxGeometry relative="1" as="geometry" />
        </mxCell>
        <mxCell id="X8FqZXfshNN9mOqV7TIp-1" value="马尔科夫链" style="rounded=1;whiteSpace=wrap;html=1;fontSize=16;" parent="1" vertex="1">
          <mxGeometry x="-760" y="280" width="120" height="50" as="geometry" />
        </mxCell>
        <mxCell id="X8FqZXfshNN9mOqV7TIp-16" style="edgeStyle=orthogonalEdgeStyle;rounded=0;orthogonalLoop=1;jettySize=auto;html=1;exitX=0.5;exitY=1;exitDx=0;exitDy=0;entryX=0;entryY=0.5;entryDx=0;entryDy=0;" parent="1" source="X8FqZXfshNN9mOqV7TIp-2" target="X8FqZXfshNN9mOqV7TIp-3" edge="1">
          <mxGeometry relative="1" as="geometry" />
        </mxCell>
        <mxCell id="X8FqZXfshNN9mOqV7TIp-17" style="edgeStyle=orthogonalEdgeStyle;rounded=0;orthogonalLoop=1;jettySize=auto;html=1;exitX=0.5;exitY=1;exitDx=0;exitDy=0;entryX=0;entryY=0.5;entryDx=0;entryDy=0;" parent="1" source="X8FqZXfshNN9mOqV7TIp-2" target="X8FqZXfshNN9mOqV7TIp-4" edge="1">
          <mxGeometry relative="1" as="geometry" />
        </mxCell>
        <mxCell id="X8FqZXfshNN9mOqV7TIp-2" value="Q值、V值" style="rounded=1;whiteSpace=wrap;html=1;fontSize=16;" parent="1" vertex="1">
          <mxGeometry x="-760" y="360" width="120" height="50" as="geometry" />
        </mxCell>
        <mxCell id="X8FqZXfshNN9mOqV7TIp-3" value="蒙特卡洛" style="rounded=1;whiteSpace=wrap;html=1;fontSize=16;" parent="1" vertex="1">
          <mxGeometry x="-600" y="440" width="120" height="50" as="geometry" />
        </mxCell>
        <mxCell id="X8FqZXfshNN9mOqV7TIp-18" style="edgeStyle=orthogonalEdgeStyle;rounded=0;orthogonalLoop=1;jettySize=auto;html=1;exitX=0.5;exitY=1;exitDx=0;exitDy=0;entryX=0.5;entryY=0;entryDx=0;entryDy=0;" parent="1" source="X8FqZXfshNN9mOqV7TIp-4" target="X8FqZXfshNN9mOqV7TIp-5" edge="1">
          <mxGeometry relative="1" as="geometry" />
        </mxCell>
        <mxCell id="X8FqZXfshNN9mOqV7TIp-4" value="时序差分" style="rounded=1;whiteSpace=wrap;html=1;fontSize=16;" parent="1" vertex="1">
          <mxGeometry x="-600" y="520" width="120" height="50" as="geometry" />
        </mxCell>
        <mxCell id="X8FqZXfshNN9mOqV7TIp-19" style="edgeStyle=orthogonalEdgeStyle;rounded=0;orthogonalLoop=1;jettySize=auto;html=1;exitX=0.5;exitY=1;exitDx=0;exitDy=0;entryX=0.5;entryY=0;entryDx=0;entryDy=0;" parent="1" source="X8FqZXfshNN9mOqV7TIp-5" target="X8FqZXfshNN9mOqV7TIp-6" edge="1">
          <mxGeometry relative="1" as="geometry" />
        </mxCell>
        <mxCell id="X8FqZXfshNN9mOqV7TIp-5" value="Q-Learning" style="rounded=1;whiteSpace=wrap;html=1;fontSize=16;" parent="1" vertex="1">
          <mxGeometry x="-600" y="640" width="120" height="50" as="geometry" />
        </mxCell>
        <mxCell id="X8FqZXfshNN9mOqV7TIp-21" style="edgeStyle=orthogonalEdgeStyle;rounded=0;orthogonalLoop=1;jettySize=auto;html=1;exitX=0.5;exitY=1;exitDx=0;exitDy=0;entryX=0.5;entryY=0;entryDx=0;entryDy=0;" parent="1" source="X8FqZXfshNN9mOqV7TIp-6" target="X8FqZXfshNN9mOqV7TIp-8" edge="1">
          <mxGeometry relative="1" as="geometry" />
        </mxCell>
        <mxCell id="X8FqZXfshNN9mOqV7TIp-22" style="edgeStyle=orthogonalEdgeStyle;rounded=0;orthogonalLoop=1;jettySize=auto;html=1;exitX=1;exitY=0.5;exitDx=0;exitDy=0;entryX=0.5;entryY=0;entryDx=0;entryDy=0;" parent="1" source="X8FqZXfshNN9mOqV7TIp-6" target="X8FqZXfshNN9mOqV7TIp-9" edge="1">
          <mxGeometry relative="1" as="geometry" />
        </mxCell>
        <mxCell id="X8FqZXfshNN9mOqV7TIp-6" value="DQN" style="rounded=1;whiteSpace=wrap;html=1;fontSize=16;" parent="1" vertex="1">
          <mxGeometry x="-600" y="720" width="120" height="50" as="geometry" />
        </mxCell>
        <mxCell id="X8FqZXfshNN9mOqV7TIp-20" style="edgeStyle=orthogonalEdgeStyle;rounded=0;orthogonalLoop=1;jettySize=auto;html=1;exitX=0.5;exitY=1;exitDx=0;exitDy=0;" parent="1" source="X8FqZXfshNN9mOqV7TIp-7" target="X8FqZXfshNN9mOqV7TIp-8" edge="1">
          <mxGeometry relative="1" as="geometry" />
        </mxCell>
        <mxCell id="X8FqZXfshNN9mOqV7TIp-7" value="Policy Gradient" style="rounded=1;whiteSpace=wrap;html=1;fontSize=16;" parent="1" vertex="1">
          <mxGeometry x="-760" y="720" width="120" height="50" as="geometry" />
        </mxCell>
        <mxCell id="X8FqZXfshNN9mOqV7TIp-24" style="edgeStyle=orthogonalEdgeStyle;rounded=0;orthogonalLoop=1;jettySize=auto;html=1;exitX=0.5;exitY=1;exitDx=0;exitDy=0;entryX=0.5;entryY=0;entryDx=0;entryDy=0;" parent="1" source="X8FqZXfshNN9mOqV7TIp-8" target="X8FqZXfshNN9mOqV7TIp-10" edge="1">
          <mxGeometry relative="1" as="geometry" />
        </mxCell>
        <mxCell id="X8FqZXfshNN9mOqV7TIp-25" style="edgeStyle=orthogonalEdgeStyle;rounded=0;orthogonalLoop=1;jettySize=auto;html=1;exitX=0.5;exitY=1;exitDx=0;exitDy=0;entryX=0.5;entryY=0;entryDx=0;entryDy=0;" parent="1" source="X8FqZXfshNN9mOqV7TIp-8" target="X8FqZXfshNN9mOqV7TIp-11" edge="1">
          <mxGeometry relative="1" as="geometry" />
        </mxCell>
        <mxCell id="X8FqZXfshNN9mOqV7TIp-8" value="AC" style="rounded=1;whiteSpace=wrap;html=1;fontSize=16;" parent="1" vertex="1">
          <mxGeometry x="-680" y="840" width="120" height="50" as="geometry" />
        </mxCell>
        <mxCell id="X8FqZXfshNN9mOqV7TIp-23" style="edgeStyle=orthogonalEdgeStyle;rounded=0;orthogonalLoop=1;jettySize=auto;html=1;exitX=0.5;exitY=1;exitDx=0;exitDy=0;" parent="1" source="X8FqZXfshNN9mOqV7TIp-9" target="X8FqZXfshNN9mOqV7TIp-14" edge="1">
          <mxGeometry relative="1" as="geometry" />
        </mxCell>
        <mxCell id="X8FqZXfshNN9mOqV7TIp-9" value="DDPG" style="rounded=1;whiteSpace=wrap;html=1;fontSize=16;" parent="1" vertex="1">
          <mxGeometry x="-440" y="840" width="120" height="50" as="geometry" />
        </mxCell>
        <mxCell id="X8FqZXfshNN9mOqV7TIp-26" style="edgeStyle=orthogonalEdgeStyle;rounded=0;orthogonalLoop=1;jettySize=auto;html=1;exitX=0.5;exitY=1;exitDx=0;exitDy=0;entryX=0.5;entryY=0;entryDx=0;entryDy=0;" parent="1" source="X8FqZXfshNN9mOqV7TIp-10" target="X8FqZXfshNN9mOqV7TIp-12" edge="1">
          <mxGeometry relative="1" as="geometry" />
        </mxCell>
        <mxCell id="X8FqZXfshNN9mOqV7TIp-10" value="PPO" style="rounded=1;whiteSpace=wrap;html=1;fontSize=16;" parent="1" vertex="1">
          <mxGeometry x="-760" y="960" width="120" height="50" as="geometry" />
        </mxCell>
        <mxCell id="X8FqZXfshNN9mOqV7TIp-11" value="A3C" style="rounded=1;whiteSpace=wrap;html=1;fontSize=16;" parent="1" vertex="1">
          <mxGeometry x="-600" y="960" width="120" height="50" as="geometry" />
        </mxCell>
        <mxCell id="X8FqZXfshNN9mOqV7TIp-12" value="DPPO" style="rounded=1;whiteSpace=wrap;html=1;fontSize=16;" parent="1" vertex="1">
          <mxGeometry x="-760" y="1040" width="120" height="50" as="geometry" />
        </mxCell>
        <mxCell id="X8FqZXfshNN9mOqV7TIp-14" value="TD3" style="rounded=1;whiteSpace=wrap;html=1;fontSize=16;" parent="1" vertex="1">
          <mxGeometry x="-440" y="1040" width="120" height="50" as="geometry" />
        </mxCell>
        <mxCell id="TN3XqmmbnNLTOI8RRuA9-4" style="edgeStyle=orthogonalEdgeStyle;rounded=0;orthogonalLoop=1;jettySize=auto;html=1;exitX=0.5;exitY=0;exitDx=0;exitDy=0;entryX=0.5;entryY=0;entryDx=0;entryDy=0;strokeWidth=3;strokeColor=#F19C99;" edge="1" parent="1" source="TN3XqmmbnNLTOI8RRuA9-1" target="TN3XqmmbnNLTOI8RRuA9-3">
          <mxGeometry relative="1" as="geometry">
            <Array as="points">
              <mxPoint x="-540" y="1220" />
              <mxPoint x="-59" y="1220" />
            </Array>
          </mxGeometry>
        </mxCell>
        <mxCell id="TN3XqmmbnNLTOI8RRuA9-5" style="edgeStyle=orthogonalEdgeStyle;rounded=0;orthogonalLoop=1;jettySize=auto;html=1;exitX=0.5;exitY=0;exitDx=0;exitDy=0;entryX=0.5;entryY=0;entryDx=0;entryDy=0;strokeWidth=3;strokeColor=#F19C99;" edge="1" parent="1" source="TN3XqmmbnNLTOI8RRuA9-1" target="TN3XqmmbnNLTOI8RRuA9-2">
          <mxGeometry relative="1" as="geometry">
            <Array as="points">
              <mxPoint x="-540" y="1220" />
              <mxPoint x="-300" y="1220" />
            </Array>
          </mxGeometry>
        </mxCell>
        <mxCell id="TN3XqmmbnNLTOI8RRuA9-1" value="策略网络&lt;br&gt;(actor)" style="rounded=1;whiteSpace=wrap;html=1;fontSize=16;fillColor=#f8cecc;strokeColor=#b85450;" vertex="1" parent="1">
          <mxGeometry x="-600" y="1280" width="119" height="60" as="geometry" />
        </mxCell>
        <mxCell id="TN3XqmmbnNLTOI8RRuA9-11" style="edgeStyle=orthogonalEdgeStyle;rounded=0;orthogonalLoop=1;jettySize=auto;html=1;exitX=0;exitY=0.5;exitDx=0;exitDy=0;entryX=1;entryY=0.5;entryDx=0;entryDy=0;fontSize=16;strokeColor=#A680B8;strokeWidth=3;" edge="1" parent="1" source="TN3XqmmbnNLTOI8RRuA9-2" target="TN3XqmmbnNLTOI8RRuA9-1">
          <mxGeometry relative="1" as="geometry" />
        </mxCell>
        <mxCell id="TN3XqmmbnNLTOI8RRuA9-2" value="价值网络&lt;br&gt;(critic)" style="rounded=1;whiteSpace=wrap;html=1;fontSize=16;fillColor=#d5e8d4;strokeColor=#82b366;" vertex="1" parent="1">
          <mxGeometry x="-360" y="1280" width="119" height="60" as="geometry" />
        </mxCell>
        <mxCell id="TN3XqmmbnNLTOI8RRuA9-7" style="edgeStyle=orthogonalEdgeStyle;rounded=0;orthogonalLoop=1;jettySize=auto;html=1;exitX=0.5;exitY=1;exitDx=0;exitDy=0;entryX=0.5;entryY=1;entryDx=0;entryDy=0;fontSize=14;strokeColor=#FFCE9F;strokeWidth=3;" edge="1" parent="1" source="TN3XqmmbnNLTOI8RRuA9-3" target="TN3XqmmbnNLTOI8RRuA9-1">
          <mxGeometry relative="1" as="geometry">
            <Array as="points">
              <mxPoint x="-59" y="1400" />
              <mxPoint x="-540" y="1400" />
            </Array>
          </mxGeometry>
        </mxCell>
        <mxCell id="TN3XqmmbnNLTOI8RRuA9-8" style="edgeStyle=orthogonalEdgeStyle;rounded=0;orthogonalLoop=1;jettySize=auto;html=1;exitX=0.5;exitY=1;exitDx=0;exitDy=0;entryX=0.5;entryY=1;entryDx=0;entryDy=0;fontSize=14;strokeColor=#FFCE9F;strokeWidth=3;" edge="1" parent="1" source="TN3XqmmbnNLTOI8RRuA9-3" target="TN3XqmmbnNLTOI8RRuA9-2">
          <mxGeometry relative="1" as="geometry">
            <Array as="points">
              <mxPoint x="-59" y="1400" />
              <mxPoint x="-300" y="1400" />
            </Array>
          </mxGeometry>
        </mxCell>
        <mxCell id="TN3XqmmbnNLTOI8RRuA9-10" style="edgeStyle=orthogonalEdgeStyle;rounded=0;orthogonalLoop=1;jettySize=auto;html=1;exitX=0;exitY=0.5;exitDx=0;exitDy=0;entryX=1;entryY=0.5;entryDx=0;entryDy=0;fontSize=16;strokeColor=#B9E0A5;strokeWidth=3;" edge="1" parent="1" source="TN3XqmmbnNLTOI8RRuA9-3" target="TN3XqmmbnNLTOI8RRuA9-2">
          <mxGeometry relative="1" as="geometry" />
        </mxCell>
        <mxCell id="TN3XqmmbnNLTOI8RRuA9-3" value="环境&lt;br&gt;(environment)" style="rounded=1;whiteSpace=wrap;html=1;fontSize=16;fillColor=#ffe6cc;strokeColor=#d79b00;" vertex="1" parent="1">
          <mxGeometry x="-119" y="1280" width="119" height="60" as="geometry" />
        </mxCell>
        <mxCell id="TN3XqmmbnNLTOI8RRuA9-6" value="&lt;font style=&quot;font-size: 16px;&quot;&gt;Action a&lt;/font&gt;" style="text;html=1;strokeColor=none;fillColor=none;align=center;verticalAlign=middle;whiteSpace=wrap;rounded=0;" vertex="1" parent="1">
          <mxGeometry x="-330.5" y="1180" width="60" height="30" as="geometry" />
        </mxCell>
        <mxCell id="TN3XqmmbnNLTOI8RRuA9-9" value="&lt;font style=&quot;font-size: 16px;&quot;&gt;State s&lt;/font&gt;" style="text;html=1;strokeColor=none;fillColor=none;align=center;verticalAlign=middle;whiteSpace=wrap;rounded=0;" vertex="1" parent="1">
          <mxGeometry x="-330.5" y="1410" width="60" height="30" as="geometry" />
        </mxCell>
        <mxCell id="TN3XqmmbnNLTOI8RRuA9-12" value="&lt;font style=&quot;font-size: 16px;&quot;&gt;Reward r&lt;/font&gt;" style="text;html=1;strokeColor=none;fillColor=none;align=center;verticalAlign=middle;whiteSpace=wrap;rounded=0;" vertex="1" parent="1">
          <mxGeometry x="-210" y="1280" width="70" height="30" as="geometry" />
        </mxCell>
        <mxCell id="TN3XqmmbnNLTOI8RRuA9-13" value="&lt;font style=&quot;font-size: 16px;&quot;&gt;Value q&lt;/font&gt;" style="text;html=1;strokeColor=none;fillColor=none;align=center;verticalAlign=middle;whiteSpace=wrap;rounded=0;" vertex="1" parent="1">
          <mxGeometry x="-450" y="1280" width="70" height="30" as="geometry" />
        </mxCell>
      </root>
    </mxGraphModel>
  </diagram>
</mxfile>
